# xmcd
#
# Track frame offsets:
#	150
#	19362
#	35295
#	51783
#	67968
#	87366
#	107776
#	126584
#	144059
#	164862
#	183426
#	197231
#	216651
#	234876
#
# Disc length: 3400 seconds
#
# Revision: 0
# Processed by: cddbd v1.5.2PL0 Copyright (c) Steve Scherf et al.
# Submitted via: EasyCDDAExtractor 15.3.0.1
#
DISCID=cf0d460e
DTITLE=Yolandita Monge - Canciones De Amor
DYEAR=2007
DGENRE=Latin
TTITLE0=El Amor
TTITLE1=Como Lo Hago Yo
TTITLE2=Si
TTITLE3=La Distancia
TTITLE4=Quitame Ese Hombre Del Corazon
TTITLE5=Debil
TTITLE6=Ahora, Ahora
TTITLE7=Contigo
TTITLE8=Este Amor Que Hay Que Callar
TTITLE9=Nunca Te Dire Adios
TTITLE10=Aceptame Como Soy
TTITLE11=Cantare
TTITLE12=Sin Amor
TTITLE13=La Sombra De Lo Que Fui
EXTD=
EXTT0=
EXTT1=
EXTT2=
EXTT3=
EXTT4=
EXTT5=
EXTT6=
EXTT7=
EXTT8=
EXTT9=
EXTT10=
EXTT11=
EXTT12=
EXTT13=
PLAYORDER=
